<svg width="38" height="38" viewBox="0 0 38 38" fill="none" xmlns="http://www.w3.org/2000/svg">
<path d="M30.1308 28.2115C31.0454 27.8772 31.8351 27.2699 32.393 26.4718C32.951 25.6737 33.2501 24.7234 33.25 23.7497V11.083C33.25 9.82323 32.7496 8.61505 31.8588 7.72425C30.968 6.83345 29.7598 6.33301 28.5 6.33301H9.5C8.24022 6.33301 7.03204 6.83345 6.14124 7.72425C5.25045 8.61505 4.75 9.82323 4.75 11.083V23.7497C4.75 25.8349 6.09583 27.6067 7.96417 28.2463" stroke="white" stroke-width="2" stroke-linecap="round" stroke-linejoin="round"/>
<path d="M15.8359 22.1667C15.8359 23.0065 16.1696 23.812 16.7634 24.4058C17.3573 24.9997 18.1628 25.3333 19.0026 25.3333C19.8425 25.3333 20.6479 24.9997 21.2418 24.4058C21.8356 23.812 22.1693 23.0065 22.1693 22.1667C22.1693 21.3268 21.8356 20.5214 21.2418 19.9275C20.6479 19.3336 19.8425 19 19.0026 19C18.1628 19 17.3573 19.3336 16.7634 19.9275C16.1696 20.5214 15.8359 21.3268 15.8359 22.1667Z" stroke="white" stroke-width="2" stroke-linecap="round" stroke-linejoin="round"/>
<path d="M12.6641 33.2497C12.6641 32.4098 12.9977 31.6044 13.5916 31.0105C14.1854 30.4166 14.9909 30.083 15.8307 30.083H22.1641C23.0039 30.083 23.8094 30.4166 24.4032 31.0105C24.9971 31.6044 25.3307 32.4098 25.3307 33.2497" stroke="white" stroke-width="2" stroke-linecap="round" stroke-linejoin="round"/>
</svg>
