<svg width="38" height="38" viewBox="0 0 38 38" fill="none" xmlns="http://www.w3.org/2000/svg">
<path d="M4.75 19C4.75 21.6234 10.4211 23.75 17.4167 23.75C17.9529 23.75 18.4813 23.7375 19 23.7133" stroke="white" stroke-width="2" stroke-linecap="round"/>
<path d="M30.0833 7.91699V18.2087M4.75 7.91699V30.0837C4.75 32.7071 10.4211 34.8337 17.4167 34.8337C17.9529 34.8337 18.4813 34.8212 19 34.7969" stroke="white" stroke-width="2" stroke-linecap="round"/>
<path d="M17.4167 12.667C24.4123 12.667 30.0833 10.5403 30.0833 7.91699C30.0833 5.29364 24.4123 3.16699 17.4167 3.16699C10.4211 3.16699 4.75 5.29364 4.75 7.91699C4.75 10.5403 10.4211 12.667 17.4167 12.667Z" stroke="white" stroke-width="2"/>
<path d="M11.0859 12.667V15.8337" stroke="white" stroke-width="2" stroke-linecap="round"/>
<path d="M11.0859 23.75V26.9167" stroke="white" stroke-width="2" stroke-linecap="round"/>
<path d="M31.6432 22.167L32.4337 25.4673L31.1203 24.6467C30.1848 23.9361 29.022 23.5147 27.7618 23.5147C24.6702 23.5147 22.1641 26.0485 22.1641 29.1742C22.1641 32.2999 24.6702 34.8337 27.7618 34.8337C30.4698 34.8337 32.7287 32.8893 33.2474 30.3061" stroke="white" stroke-width="2" stroke-linecap="round" stroke-linejoin="round"/>
</svg>
