<svg width="38" height="38" viewBox="0 0 38 38" fill="none" xmlns="http://www.w3.org/2000/svg">
<path d="M12.6641 11.0833C12.6641 12.763 13.3313 14.3739 14.5191 15.5617C15.7068 16.7494 17.3177 17.4167 18.9974 17.4167C20.6771 17.4167 22.288 16.7494 23.4757 15.5617C24.6635 14.3739 25.3307 12.763 25.3307 11.0833C25.3307 9.40363 24.6635 7.79272 23.4757 6.60499C22.288 5.41726 20.6771 4.75 18.9974 4.75C17.3177 4.75 15.7068 5.41726 14.5191 6.60499C13.3313 7.79272 12.6641 9.40363 12.6641 11.0833Z" stroke="white" stroke-width="2" stroke-linecap="round" stroke-linejoin="round"/>
<path d="M9.5 33.25V30.0833C9.5 28.4036 10.1673 26.7927 11.355 25.605C12.5427 24.4173 14.1536 23.75 15.8333 23.75H19.7917" stroke="white" stroke-width="2" stroke-linecap="round" stroke-linejoin="round"/>
<path d="M26.9219 30.0837C26.9219 30.9235 27.2555 31.729 27.8494 32.3228C28.4432 32.9167 29.2487 33.2503 30.0885 33.2503C30.9284 33.2503 31.7338 32.9167 32.3277 32.3228C32.9216 31.729 33.2552 30.9235 33.2552 30.0837C33.2552 29.2438 32.9216 28.4384 32.3277 27.8445C31.7338 27.2506 30.9284 26.917 30.0885 26.917C29.2487 26.917 28.4432 27.2506 27.8494 27.8445C27.2555 28.4384 26.9219 29.2438 26.9219 30.0837Z" stroke="white" stroke-width="2" stroke-linecap="round" stroke-linejoin="round"/>
<path d="M30.0859 24.542V26.917" stroke="white" stroke-width="2" stroke-linecap="round" stroke-linejoin="round"/>
<path d="M30.0859 33.25V35.625" stroke="white" stroke-width="2" stroke-linecap="round" stroke-linejoin="round"/>
<path d="M34.8849 27.3125L32.8281 28.5" stroke="white" stroke-width="2" stroke-linecap="round" stroke-linejoin="round"/>
<path d="M27.3474 31.667L25.2891 32.8545" stroke="white" stroke-width="2" stroke-linecap="round" stroke-linejoin="round"/>
<path d="M25.2891 27.3125L27.3474 28.5" stroke="white" stroke-width="2" stroke-linecap="round" stroke-linejoin="round"/>
<path d="M32.8281 31.667L34.8865 32.8545" stroke="white" stroke-width="2" stroke-linecap="round" stroke-linejoin="round"/>
</svg>
