<svg width="38" height="38" viewBox="0 0 38 38" fill="none" xmlns="http://www.w3.org/2000/svg">
<path d="M7.91667 11.083H9.5C10.3399 11.083 11.1453 10.7494 11.7392 10.1555C12.333 9.56165 12.6667 8.75619 12.6667 7.91634C12.6667 7.49642 12.8335 7.09369 13.1304 6.79676C13.4273 6.49982 13.8301 6.33301 14.25 6.33301H23.75C24.1699 6.33301 24.5727 6.49982 24.8696 6.79676C25.1665 7.09369 25.3333 7.49642 25.3333 7.91634C25.3333 8.75619 25.667 9.56165 26.2608 10.1555C26.8547 10.7494 27.6601 11.083 28.5 11.083H30.0833C30.9232 11.083 31.7286 11.4166 32.3225 12.0105C32.9164 12.6044 33.25 13.4098 33.25 14.2497V28.4997C33.25 29.3395 32.9164 30.145 32.3225 30.7388C31.7286 31.3327 30.9232 31.6663 30.0833 31.6663H7.91667C7.07681 31.6663 6.27136 31.3327 5.6775 30.7388C5.08363 30.145 4.75 29.3395 4.75 28.4997V14.2497C4.75 13.4098 5.08363 12.6044 5.6775 12.0105C6.27136 11.4166 7.07681 11.083 7.91667 11.083Z" stroke="white" stroke-width="2" stroke-linecap="round" stroke-linejoin="round"/>
<path d="M14.25 20.583C14.25 21.8428 14.7504 23.051 15.6412 23.9418C16.532 24.8326 17.7402 25.333 19 25.333C20.2598 25.333 21.468 24.8326 22.3588 23.9418C23.2496 23.051 23.75 21.8428 23.75 20.583C23.75 19.3232 23.2496 18.115 22.3588 17.2243C21.468 16.3335 20.2598 15.833 19 15.833C17.7402 15.833 16.532 16.3335 15.6412 17.2243C14.7504 18.115 14.25 19.3232 14.25 20.583Z" stroke="white" stroke-width="2" stroke-linecap="round" stroke-linejoin="round"/>
</svg>
