<svg width="38" height="38" viewBox="0 0 38 38" fill="none" xmlns="http://www.w3.org/2000/svg">
<path d="M12.6641 26.917H25.3307" stroke="white" stroke-width="2" stroke-linecap="round" stroke-linejoin="round"/>
<path d="M12.6641 20.583H18.9974" stroke="white" stroke-width="2" stroke-linecap="round" stroke-linejoin="round"/>
<path d="M20.5859 3.95866V4.75033C20.5859 9.22867 20.5859 11.4678 21.9772 12.8591C23.3685 14.2503 25.6076 14.2503 30.0859 14.2503H30.8776M31.6693 16.8738V22.167C31.6693 28.1381 31.6693 31.1237 29.8142 32.9786C27.9594 34.8337 24.9737 34.8337 19.0026 34.8337C13.0315 34.8337 10.0459 34.8337 8.19092 32.9786C6.33594 31.1237 6.33594 28.1381 6.33594 22.167V14.9721C6.33594 9.83412 6.33594 7.26515 7.73888 5.5251C8.02231 5.17357 8.34251 4.85337 8.69404 4.56994C10.4341 3.16699 13.0031 3.16699 18.141 3.16699C19.2582 3.16699 19.8166 3.16699 20.3282 3.34751C20.4346 3.38505 20.5388 3.42824 20.6406 3.47693C21.13 3.71095 21.5249 4.10591 22.3148 4.8958L29.8142 12.3953C30.7296 13.3106 31.1871 13.7682 31.4283 14.3502C31.6693 14.9321 31.6693 15.5793 31.6693 16.8738Z" stroke="white" stroke-width="2" stroke-linecap="round" stroke-linejoin="round"/>
</svg>
