<svg width="38" height="38" viewBox="0 0 38 38" fill="none" xmlns="http://www.w3.org/2000/svg">
<path d="M9.39062 10.9824L11.4094 17.71M20.2871 26.5909L27.0179 28.6097" stroke="white" stroke-width="2" stroke-linecap="round" stroke-linejoin="round"/>
<path d="M18.5 19.5012L27.6184 10.3828" stroke="white" stroke-width="2" stroke-linecap="round" stroke-linejoin="round"/>
<path d="M6.33594 8.70898C6.33594 9.02087 6.39737 9.32971 6.51672 9.61786C6.63608 9.90601 6.81102 10.1678 7.03156 10.3884C7.2521 10.6089 7.51392 10.7838 7.80206 10.9032C8.09021 11.0226 8.39905 11.084 8.71094 11.084C9.02283 11.084 9.33166 11.0226 9.61981 10.9032C9.90796 10.7838 10.1698 10.6089 10.3903 10.3884C10.6109 10.1678 10.7858 9.90601 10.9052 9.61786C11.0245 9.32971 11.0859 9.02087 11.0859 8.70898C11.0859 8.39709 11.0245 8.08826 10.9052 7.80011C10.7858 7.51196 10.6109 7.25014 10.3903 7.02961C10.1698 6.80907 9.90796 6.63413 9.61981 6.51477C9.33166 6.39542 9.02283 6.33398 8.71094 6.33398C8.39905 6.33398 8.09021 6.39542 7.80206 6.51477C7.51392 6.63413 7.2521 6.80907 7.03156 7.02961C6.81102 7.25014 6.63608 7.51196 6.51672 7.80011C6.39737 8.08826 6.33594 8.39709 6.33594 8.70898Z" stroke="white" stroke-width="2" stroke-linecap="round" stroke-linejoin="round"/>
<path d="M26.9141 8.70898C26.9141 9.33887 27.1643 9.94296 27.6097 10.3884C28.0551 10.8338 28.6592 11.084 29.2891 11.084C29.919 11.084 30.523 10.8338 30.9684 10.3884C31.4138 9.94296 31.6641 9.33887 31.6641 8.70898C31.6641 8.0791 31.4138 7.475 30.9684 7.02961C30.523 6.58421 29.919 6.33398 29.2891 6.33398C28.6592 6.33398 28.0551 6.58421 27.6097 7.02961C27.1643 7.475 26.9141 8.0791 26.9141 8.70898Z" stroke="white" stroke-width="2" stroke-linecap="round" stroke-linejoin="round"/>
<path d="M26.9141 29.291C26.9141 29.9209 27.1643 30.525 27.6097 30.9704C28.0551 31.4158 28.6592 31.666 29.2891 31.666C29.919 31.666 30.523 31.4158 30.9684 30.9704C31.4138 30.525 31.6641 29.9209 31.6641 29.291C31.6641 28.6611 31.4138 28.057 30.9684 27.6116C30.523 27.1662 29.919 26.916 29.2891 26.916C28.6592 26.916 28.0551 27.1662 27.6097 27.6116C27.1643 28.057 26.9141 28.6611 26.9141 29.291Z" stroke="white" stroke-width="2" stroke-linecap="round" stroke-linejoin="round"/>
<path d="M6.33594 24.541C6.33594 26.4307 7.0866 28.243 8.4228 29.5792C9.759 30.9153 11.5713 31.666 13.4609 31.666C15.3506 31.666 17.1629 30.9153 18.4991 29.5792C19.8353 28.243 20.5859 26.4307 20.5859 24.541C20.5859 22.6513 19.8353 20.8391 18.4991 19.5029C17.1629 18.1667 15.3506 17.416 13.4609 17.416C11.5713 17.416 9.759 18.1667 8.4228 19.5029C7.0866 20.8391 6.33594 22.6513 6.33594 24.541Z" stroke="white" stroke-width="2" stroke-linecap="round" stroke-linejoin="round"/>
</svg>
