<svg width="38" height="38" viewBox="0 0 38 38" fill="none" xmlns="http://www.w3.org/2000/svg">
<path d="M9.5 22.167V12.667C9.5 11.4072 10.0004 10.199 10.8912 9.30824C11.782 8.41744 12.9902 7.91699 14.25 7.91699C15.5098 7.91699 16.718 8.41744 17.6088 9.30824C18.4996 10.199 19 11.4072 19 12.667V25.3337C19 26.5934 19.5004 27.8016 20.3912 28.6924C21.282 29.5832 22.4902 30.0837 23.75 30.0837C25.0098 30.0837 26.218 29.5832 27.1088 28.6924C27.9996 27.8016 28.5 26.5934 28.5 25.3337V15.8337" stroke="white" stroke-width="2" stroke-linecap="round" stroke-linejoin="round"/>
<path d="M25.3359 7.91667C25.3359 7.07681 25.6696 6.27136 26.2634 5.67749C26.8573 5.08363 27.6628 4.75 28.5026 4.75C29.3425 4.75 30.1479 5.08363 30.7418 5.67749C31.3356 6.27136 31.6693 7.07681 31.6693 7.91667V12.6667C31.6693 13.5065 31.3356 14.312 30.7418 14.9058C30.1479 15.4997 29.3425 15.8333 28.5026 15.8333C27.6628 15.8333 26.8573 15.4997 26.2634 14.9058C25.6696 14.312 25.3359 13.5065 25.3359 12.6667V7.91667Z" stroke="white" stroke-width="2" stroke-linecap="round" stroke-linejoin="round"/>
<path d="M6.33594 25.3337C6.33594 24.4938 6.66957 23.6884 7.26343 23.0945C7.8573 22.5006 8.66275 22.167 9.5026 22.167C10.3425 22.167 11.1479 22.5006 11.7418 23.0945C12.3356 23.6884 12.6693 24.4938 12.6693 25.3337V30.0837C12.6693 30.9235 12.3356 31.729 11.7418 32.3228C11.1479 32.9167 10.3425 33.2503 9.5026 33.2503C8.66275 33.2503 7.8573 32.9167 7.26343 32.3228C6.66957 31.729 6.33594 30.9235 6.33594 30.0837V25.3337Z" stroke="white" stroke-width="2" stroke-linecap="round" stroke-linejoin="round"/>
</svg>
