<svg width="20" height="20" viewBox="0 0 20 20" fill="none" xmlns="http://www.w3.org/2000/svg">
<g clip-path="url(#clip0_2185_5882)">
<g clip-path="url(#clip1_2185_5882)">
<g clip-path="url(#clip2_2185_5882)">
<path d="M10.0052 1.66406C12.2694 1.66406 12.5519 1.6724 13.4402 1.71406C14.3277 1.75573 14.9319 1.8949 15.4636 2.10156C16.0136 2.31323 16.4769 2.5999 16.9402 3.0624C17.364 3.47898 17.6919 3.98289 17.9011 4.53906C18.1069 5.0699 18.2469 5.6749 18.2886 6.5624C18.3277 7.45073 18.3386 7.73323 18.3386 9.99737C18.3386 12.2616 18.3302 12.5441 18.2886 13.4324C18.2469 14.3199 18.1069 14.9241 17.9011 15.4558C17.6925 16.0122 17.3645 16.5163 16.9402 16.9324C16.5235 17.356 16.0197 17.6839 15.4636 17.8933C14.9327 18.0991 14.3277 18.2391 13.4402 18.2808C12.5519 18.3199 12.2694 18.3308 10.0052 18.3308C7.74105 18.3308 7.45855 18.3224 6.57022 18.2808C5.68272 18.2391 5.07854 18.0991 4.54687 17.8933C3.99048 17.6845 3.48648 17.3565 3.07021 16.9324C2.64638 16.5159 2.31849 16.012 2.10938 15.4558C1.90271 14.9249 1.76354 14.3199 1.72187 13.4324C1.68271 12.5441 1.67188 12.2616 1.67188 9.99737C1.67188 7.73323 1.68021 7.45073 1.72187 6.5624C1.76354 5.67406 1.90271 5.07073 2.10938 4.53906C2.3179 3.98255 2.64588 3.4785 3.07021 3.0624C3.4866 2.63842 3.99056 2.3105 4.54687 2.10156C5.07854 1.8949 5.68188 1.75573 6.57022 1.71406C7.45855 1.6749 7.74105 1.66406 10.0052 1.66406ZM10.0052 5.83073C8.90015 5.83073 7.84034 6.26972 7.05894 7.05112C6.27754 7.83252 5.83854 8.89233 5.83854 9.99737C5.83854 11.1025 6.27754 12.1623 7.05894 12.9437C7.84034 13.7251 8.90015 14.1641 10.0052 14.1641C11.1103 14.1641 12.1701 13.7251 12.9515 12.9437C13.7329 12.1623 14.1719 11.1025 14.1719 9.99737C14.1719 8.89233 13.7329 7.83252 12.9515 7.05112C12.1701 6.26972 11.1103 5.83073 10.0052 5.83073ZM15.4219 5.6224C15.4219 5.34613 15.3121 5.08118 15.1168 4.88583C14.9214 4.69048 14.6565 4.58073 14.3802 4.58073C14.104 4.58073 13.839 4.69048 13.6437 4.88583C13.4483 5.08118 13.3386 5.34613 13.3386 5.6224C13.3386 5.89866 13.4483 6.16361 13.6437 6.35897C13.839 6.55432 14.104 6.66406 14.3802 6.66406C14.6565 6.66406 14.9214 6.55432 15.1168 6.35897C15.3121 6.16361 15.4219 5.89866 15.4219 5.6224ZM10.0052 7.4974C10.6683 7.4974 11.3042 7.76079 11.773 8.22963C12.2418 8.69847 12.5052 9.33435 12.5052 9.99737C12.5052 10.6605 12.2418 11.2964 11.773 11.7652C11.3042 12.234 10.6683 12.4974 10.0052 12.4974C9.34217 12.4974 8.70628 12.234 8.23744 11.7652C7.7686 11.2964 7.50521 10.6605 7.50521 9.99737C7.50521 9.33435 7.7686 8.69847 8.23744 8.22963C8.70628 7.76079 9.34217 7.4974 10.0052 7.4974Z" fill="#262626"/>
</g>
</g>
</g>
<defs>
<clipPath id="clip0_2185_5882">
<rect width="20" height="20" fill="white"/>
</clipPath>
<clipPath id="clip1_2185_5882">
<rect width="20" height="20" fill="white"/>
</clipPath>
<clipPath id="clip2_2185_5882">
<rect width="20" height="20" fill="white"/>
</clipPath>
</defs>
</svg>
