<svg width="38" height="38" viewBox="0 0 38 38" fill="none" xmlns="http://www.w3.org/2000/svg">
<path d="M19.8233 33.1297C18.4458 33.5445 16.7675 32.889 16.3479 31.1648C16.2467 30.7471 16.0483 30.3592 15.7689 30.0327C15.4894 29.7062 15.1368 29.4502 14.7398 29.2857C14.3428 29.1212 13.9125 29.0528 13.484 29.086C13.0555 29.1193 12.6409 29.2532 12.274 29.4769C9.83092 30.9653 7.03317 28.1691 8.5215 25.7244C8.74491 25.3576 8.87862 24.9433 8.91177 24.5151C8.94491 24.0869 8.87655 23.6569 8.71225 23.2601C8.54794 22.8633 8.29233 22.5109 7.96618 22.2315C7.64004 21.9521 7.25256 21.7536 6.83525 21.6521C4.05492 20.9776 4.05492 17.0224 6.83525 16.3479C7.25293 16.2467 7.64082 16.0483 7.96733 15.7689C8.29385 15.4894 8.54977 15.1368 8.71426 14.7398C8.87876 14.3428 8.94718 13.9125 8.91396 13.484C8.88074 13.0555 8.74681 12.6409 8.52308 12.274C7.03475 9.83092 9.83092 7.03317 12.2756 8.5215C13.8589 9.48417 15.9109 8.63233 16.3479 6.83525C17.0224 4.05492 20.9776 4.05492 21.6521 6.83525C21.7533 7.25293 21.9517 7.64082 22.2311 7.96733C22.5106 8.29385 22.8632 8.54977 23.2602 8.71426C23.6572 8.87876 24.0875 8.94718 24.516 8.91396C24.9445 8.88074 25.3591 8.74681 25.726 8.52308C28.1691 7.03475 30.9668 9.83092 29.4785 12.2756C29.2551 12.6424 29.1214 13.0567 29.0882 13.4849C29.0551 13.9131 29.1234 14.3431 29.2878 14.7399C29.4521 15.1367 29.7077 15.4891 30.0338 15.7685C30.36 16.0479 30.7474 16.2464 31.1648 16.3479C32.8874 16.7659 33.5429 18.4427 33.1312 19.8186" stroke="white" stroke-width="2" stroke-linecap="round" stroke-linejoin="round"/>
<path d="M30.0859 25.334V34.834" stroke="white" stroke-width="2" stroke-linecap="round" stroke-linejoin="round"/>
<path d="M34.8359 30.084L30.0859 34.834L25.3359 30.084" stroke="white" stroke-width="2" stroke-linecap="round" stroke-linejoin="round"/>
<path d="M14.25 19C14.25 20.2598 14.7504 21.468 15.6412 22.3588C16.532 23.2496 17.7402 23.75 19 23.75C20.2598 23.75 21.468 23.2496 22.3588 22.3588C23.2496 21.468 23.75 20.2598 23.75 19C23.75 17.7402 23.2496 16.532 22.3588 15.6412C21.468 14.7504 20.2598 14.25 19 14.25C17.7402 14.25 16.532 14.7504 15.6412 15.6412C14.7504 16.532 14.25 17.7402 14.25 19Z" stroke="white" stroke-width="2" stroke-linecap="round" stroke-linejoin="round"/>
</svg>
