<svg width="20" height="20" viewBox="0 0 20 20" fill="none" xmlns="http://www.w3.org/2000/svg">
<g clip-path="url(#clip0_2185_5873)">
<g clip-path="url(#clip1_2185_5873)">
<path d="M5.78646 4.1675C5.78624 4.60953 5.61042 5.03337 5.2977 5.34577C4.98499 5.65818 4.56099 5.83356 4.11896 5.83334C3.67693 5.83312 3.2531 5.65731 2.94069 5.34459C2.62829 5.03188 2.4529 4.60786 2.45313 4.16584C2.45335 3.72381 2.62915 3.29997 2.94187 2.98757C3.25459 2.67517 3.6786 2.49978 4.12063 2.5C4.56265 2.50022 4.98649 2.67603 5.29889 2.98875C5.6113 3.30147 5.78668 3.72548 5.78646 4.1675ZM5.83646 7.0675H2.50313V17.5009H5.83646V7.0675ZM11.1031 7.0675H7.78646V17.5009H11.0698V12.0259C11.0698 8.97584 15.0448 8.6925 15.0448 12.0259V17.5009H18.3364V10.8925C18.3364 5.75084 12.4531 5.9425 11.0698 8.4675L11.1031 7.0675Z" fill="#262626"/>
</g>
</g>
<defs>
<clipPath id="clip0_2185_5873">
<rect width="20" height="20" fill="white"/>
</clipPath>
<clipPath id="clip1_2185_5873">
<rect width="20" height="20" fill="white"/>
</clipPath>
</defs>
</svg>
