<svg width="38" height="38" viewBox="0 0 38 38" fill="none" xmlns="http://www.w3.org/2000/svg">
<path d="M21.3776 3.16699H16.6276C12.8957 3.16699 11.0297 3.16699 9.8703 4.32636C8.71094 5.48574 8.71094 7.35171 8.71094 11.0837V26.917C8.71094 30.6489 8.71094 32.5149 9.8703 33.6743C11.0297 34.8337 12.8957 34.8337 16.6276 34.8337H21.3776C25.1095 34.8337 26.9755 34.8337 28.135 33.6743C29.2943 32.5149 29.2943 30.6489 29.2943 26.917V11.0837C29.2943 7.35171 29.2943 5.48574 28.135 4.32636C26.9755 3.16699 25.1095 3.16699 21.3776 3.16699Z" stroke="white" stroke-width="2" stroke-linecap="round" stroke-linejoin="round"/>
<path d="M22.1693 3.16699H15.8359L16.6276 4.75033H21.3776L22.1693 3.16699Z" stroke="white" stroke-width="2" stroke-linecap="round" stroke-linejoin="round"/>
</svg>
