<svg width="38" height="38" viewBox="0 0 38 38" fill="none" xmlns="http://www.w3.org/2000/svg">
<path d="M6.33594 22.166H13.336C14.8087 22.166 15.545 22.166 15.7411 22.6095C15.9373 23.0532 15.4362 23.5852 14.4341 24.6493L8.67438 30.766C7.6723 31.8302 7.17126 32.3622 7.3674 32.8059C7.56354 33.2493 8.29987 33.2493 9.77253 33.2493H15.8359" stroke="#FFFEFE" stroke-width="2" stroke-linecap="round" stroke-linejoin="round"/>
<path d="M6.33594 14.25L9.66976 6.81668C10.2877 5.43889 10.5967 4.75 11.0859 4.75C11.5752 4.75 11.8842 5.43889 12.5021 6.81668L15.8359 14.25" stroke="#FFFEFE" stroke-width="2" stroke-linecap="round" stroke-linejoin="round"/>
<path d="M27.7083 31.6673V6.33398M27.7083 31.6673C26.5997 31.6673 24.5282 28.5097 23.75 27.709M27.7083 31.6673C28.817 31.6673 30.8885 28.5097 31.6667 27.709" stroke="#FFFEFE" stroke-width="2" stroke-linecap="round" stroke-linejoin="round"/>
</svg>
