<svg width="38" height="38" viewBox="0 0 38 38" fill="none" xmlns="http://www.w3.org/2000/svg">
<path d="M23.7526 12.6663V9.49967C23.7526 8.65982 23.419 7.85437 22.8251 7.2605C22.2312 6.66664 21.4258 6.33301 20.5859 6.33301H9.5026C8.66275 6.33301 7.8573 6.66664 7.26343 7.2605C6.66957 7.85437 6.33594 8.65982 6.33594 9.49967V28.4997C6.33594 29.3395 6.66957 30.145 7.26343 30.7388C7.8573 31.3327 8.66275 31.6663 9.5026 31.6663H20.5859C21.4258 31.6663 22.2312 31.3327 22.8251 30.7388C23.419 30.145 23.7526 29.3395 23.7526 28.4997V25.333" stroke="white" stroke-width="2" stroke-linecap="round" stroke-linejoin="round"/>
<path d="M33.2474 19H12.6641L17.4141 14.25" stroke="white" stroke-width="2" stroke-linecap="round" stroke-linejoin="round"/>
<path d="M17.4141 23.75L12.6641 19" stroke="white" stroke-width="2" stroke-linecap="round" stroke-linejoin="round"/>
</svg>
