<svg width="38" height="38" viewBox="0 0 38 38" fill="none" xmlns="http://www.w3.org/2000/svg">
<path d="M28.5 3.16699V7.91699M9.5 3.16699V7.91699" stroke="white" stroke-width="2" stroke-linecap="round" stroke-linejoin="round"/>
<path d="M16.6276 5.54199H21.3776C27.3487 5.54199 30.3344 5.54199 32.1892 7.39698C34.0443 9.25198 34.0443 12.2375 34.0443 18.2087V22.167C34.0443 28.1381 34.0443 31.1237 32.1892 32.9786C30.3344 34.8337 27.3487 34.8337 21.3776 34.8337H16.6276C10.6565 34.8337 7.67093 34.8337 5.81592 32.9786C3.96094 31.1237 3.96094 28.1381 3.96094 22.167V18.2087C3.96094 12.2375 3.96094 9.25198 5.81592 7.39698C7.67093 5.54199 10.6565 5.54199 16.6276 5.54199Z" stroke="white" stroke-width="2" stroke-linecap="round" stroke-linejoin="round"/>
<path d="M4.75 12.667H33.25" stroke="white" stroke-width="2" stroke-linecap="round" stroke-linejoin="round"/>
<path d="M13.3664 23.0033C15.914 22.6862 17.9332 20.6669 18.2504 18.1194C18.2984 17.7337 18.6087 17.417 18.9974 17.417C19.3861 17.417 19.6964 17.7337 19.7444 18.1194C20.0616 20.6669 22.0808 22.6862 24.6284 23.0033C25.0141 23.0513 25.3307 23.3616 25.3307 23.7503C25.3307 24.139 25.0141 24.4494 24.6284 24.4973C22.0808 24.8145 20.0616 26.8337 19.7444 29.3813C19.6964 29.767 19.3861 30.0837 18.9974 30.0837C18.6087 30.0837 18.2984 29.767 18.2504 29.3813C17.9332 26.8337 15.914 24.8145 13.3664 24.4973C12.9807 24.4494 12.6641 24.139 12.6641 23.7503C12.6641 23.3616 12.9807 23.0513 13.3664 23.0033Z" stroke="white" stroke-width="2" stroke-linecap="round" stroke-linejoin="round"/>
</svg>
