<svg width="124" height="69" viewBox="0 0 124 69" fill="none" xmlns="http://www.w3.org/2000/svg">
<g clip-path="url(#clip0_2211_16071)">
<path d="M123.661 56.62H114.871V68.48H123.751V66.62H116.961V63.44H122.911V61.58H116.961V58.5H123.671V56.64L123.661 56.62ZM110.191 60.5C110.191 61.11 109.971 61.6 109.531 61.96C109.091 62.32 108.501 62.5 107.751 62.5H104.701V58.52H107.731C108.511 58.52 109.111 58.69 109.541 59.02C109.971 59.35 110.181 59.85 110.181 60.5H110.191ZM112.691 68.48L109.491 63.99C109.911 63.88 110.291 63.72 110.631 63.51C110.971 63.3 111.271 63.05 111.521 62.75C111.771 62.45 111.961 62.11 112.101 61.72C112.241 61.33 112.311 60.89 112.311 60.39C112.311 59.81 112.211 59.29 112.001 58.82C111.801 58.35 111.511 57.96 111.131 57.63C110.751 57.31 110.291 57.06 109.741 56.88C109.191 56.71 108.581 56.62 107.901 56.62H102.611V68.48H104.691V64.35H107.301L110.211 68.48H112.671H112.691ZM97.9108 62.57C97.9108 63.15 97.8108 63.69 97.6108 64.21C97.4108 64.72 97.1408 65.17 96.7908 65.55C96.4408 65.93 96.0208 66.23 95.5308 66.45C95.0408 66.67 94.5008 66.78 93.9108 66.78C93.3208 66.78 92.7808 66.67 92.2808 66.44C91.7808 66.21 91.3608 65.91 91.0008 65.53C90.6408 65.15 90.3708 64.7 90.1708 64.18C89.9708 63.67 89.8708 63.12 89.8708 62.55C89.8708 61.98 89.9708 61.43 90.1708 60.91C90.3708 60.4 90.6408 59.95 90.9908 59.57C91.3408 59.19 91.7608 58.89 92.2508 58.67C92.7408 58.45 93.2808 58.34 93.8708 58.34C94.4608 58.34 95.0008 58.45 95.5008 58.68C96.0008 58.91 96.4208 59.21 96.7808 59.59C97.1408 59.97 97.4108 60.42 97.6108 60.94C97.8108 61.45 97.9108 62 97.9108 62.57ZM100.101 62.53C100.101 61.69 99.9508 60.9 99.6408 60.16C99.3408 59.41 98.9108 58.76 98.3708 58.21C97.8308 57.66 97.1808 57.22 96.4208 56.9C95.6608 56.58 94.8308 56.42 93.9108 56.42C92.9908 56.42 92.1608 56.58 91.4008 56.91C90.6408 57.24 89.9908 57.68 89.4408 58.24C88.8908 58.8 88.4608 59.45 88.1508 60.2C87.8508 60.95 87.6908 61.74 87.6908 62.57C87.6908 63.4 87.8408 64.2 88.1508 64.94C88.4608 65.69 88.8808 66.33 89.4208 66.89C89.9608 67.44 90.6108 67.88 91.3708 68.2C92.1308 68.52 92.9608 68.68 93.8808 68.68C94.8008 68.68 95.6308 68.52 96.3908 68.19C97.1508 67.86 97.8008 67.42 98.3508 66.86C98.9008 66.3 99.3308 65.65 99.6408 64.9C99.9508 64.15 100.101 63.36 100.101 62.53ZM86.3808 66.58L85.0408 65.22C84.5308 65.69 84.0208 66.07 83.5008 66.35C82.9808 66.63 82.3608 66.77 81.6408 66.77C81.0808 66.77 80.5508 66.66 80.0708 66.44C79.5908 66.22 79.1808 65.92 78.8308 65.53C78.4808 65.15 78.2108 64.7 78.0208 64.18C77.8308 63.67 77.7308 63.12 77.7308 62.53C77.7308 61.94 77.8308 61.39 78.0208 60.89C78.2108 60.38 78.4808 59.94 78.8308 59.56C79.1808 59.18 79.6008 58.88 80.0708 58.66C80.5508 58.44 81.0708 58.33 81.6408 58.33C82.3208 58.33 82.9208 58.47 83.4508 58.74C83.9808 59.01 84.4808 59.37 84.9608 59.81L86.3008 58.27C86.0208 58 85.7208 57.75 85.4008 57.52C85.0808 57.29 84.7408 57.1 84.3708 56.94C84.0008 56.78 83.5908 56.65 83.1408 56.56C82.6908 56.47 82.2008 56.42 81.6608 56.42C80.7608 56.42 79.9308 56.58 79.1908 56.9C78.4408 57.22 77.8008 57.66 77.2608 58.22C76.7208 58.78 76.3008 59.43 76.0008 60.18C75.7008 60.93 75.5508 61.72 75.5508 62.57C75.5508 63.42 75.7008 64.23 76.0108 64.98C76.3208 65.73 76.7408 66.37 77.2708 66.92C77.8108 67.47 78.4408 67.9 79.1808 68.22C79.9108 68.54 80.7208 68.69 81.5908 68.69C82.1408 68.69 82.6508 68.64 83.1108 68.55C83.5708 68.45 83.9908 68.31 84.3708 68.13C84.7508 67.94 85.1108 67.72 85.4508 67.47C85.7808 67.22 86.1008 66.93 86.4108 66.6L86.3808 66.58Z" fill="white"/>
<path d="M70.59 63.77H66.51L68.54 59.03L70.59 63.77ZM69.54 56.54H67.61L62.39 68.48H64.52L65.74 65.62H71.35L72.55 68.48H74.75L69.53 56.54H69.54ZM58.73 60.5C58.73 61.11 58.51 61.6 58.07 61.96C57.63 62.32 57.04 62.5 56.29 62.5H53.24V58.52H56.27C57.05 58.52 57.65 58.69 58.08 59.02C58.51 59.35 58.72 59.85 58.72 60.5H58.73ZM61.22 68.48L58.02 63.99C58.44 63.88 58.82 63.72 59.16 63.51C59.5 63.3 59.8 63.05 60.05 62.75C60.3 62.45 60.49 62.11 60.63 61.72C60.77 61.33 60.84 60.89 60.84 60.39C60.84 59.81 60.74 59.29 60.54 58.82C60.34 58.35 60.05 57.96 59.67 57.63C59.29 57.31 58.83 57.06 58.28 56.88C57.73 56.71 57.12 56.62 56.44 56.62H51.15V68.48H53.23V64.35H55.84L58.75 68.48H61.21H61.22ZM48.3 56.62H46.22V63.45C46.22 64.55 45.95 65.37 45.42 65.92C44.89 66.47 44.16 66.75 43.23 66.75C42.3 66.75 41.56 66.46 41.03 65.89C40.5 65.31 40.23 64.47 40.23 63.37V56.63H38.15V63.46C38.15 64.32 38.27 65.07 38.51 65.72C38.75 66.37 39.09 66.91 39.53 67.35C39.97 67.79 40.5 68.12 41.12 68.34C41.74 68.56 42.44 68.67 43.2 68.67C43.96 68.67 44.68 68.56 45.31 68.34C45.94 68.12 46.47 67.79 46.91 67.34C47.35 66.89 47.69 66.34 47.93 65.67C48.17 65 48.29 64.23 48.29 63.35V56.62H48.3ZM36.15 66.58L34.81 65.22C34.3 65.69 33.79 66.07 33.27 66.35C32.75 66.63 32.13 66.77 31.41 66.77C30.85 66.77 30.32 66.66 29.84 66.44C29.36 66.22 28.95 65.92 28.6 65.53C28.25 65.15 27.98 64.7 27.79 64.18C27.6 63.67 27.5 63.12 27.5 62.53C27.5 61.94 27.6 61.39 27.79 60.89C27.98 60.38 28.25 59.94 28.6 59.56C28.95 59.18 29.37 58.88 29.84 58.66C30.32 58.44 30.84 58.33 31.41 58.33C32.09 58.33 32.69 58.47 33.22 58.74C33.75 59.01 34.25 59.37 34.73 59.81L36.07 58.27C35.79 58 35.49 57.75 35.17 57.52C34.85 57.29 34.51 57.1 34.14 56.94C33.77 56.78 33.36 56.65 32.91 56.56C32.46 56.47 31.97 56.42 31.43 56.42C30.53 56.42 29.7 56.58 28.96 56.9C28.21 57.22 27.57 57.66 27.03 58.22C26.49 58.78 26.07 59.43 25.77 60.18C25.47 60.93 25.32 61.72 25.32 62.57C25.32 63.42 25.47 64.23 25.78 64.98C26.08 65.73 26.51 66.37 27.04 66.92C27.58 67.47 28.21 67.9 28.95 68.22C29.68 68.54 30.49 68.69 31.36 68.69C31.91 68.69 32.42 68.64 32.88 68.55C33.34 68.45 33.76 68.31 34.14 68.13C34.52 67.94 34.88 67.72 35.22 67.47C35.55 67.22 35.87 66.93 36.18 66.6L36.15 66.58ZM23.99 66.58L22.65 65.22C22.14 65.69 21.63 66.07 21.11 66.35C20.59 66.63 19.97 66.77 19.25 66.77C18.69 66.77 18.16 66.66 17.68 66.44C17.2 66.22 16.78 65.92 16.44 65.53C16.09 65.15 15.82 64.7 15.63 64.18C15.44 63.67 15.34 63.12 15.34 62.53C15.34 61.94 15.44 61.39 15.63 60.89C15.82 60.38 16.09 59.94 16.44 59.56C16.79 59.18 17.21 58.88 17.68 58.66C18.16 58.44 18.68 58.33 19.25 58.33C19.93 58.33 20.53 58.47 21.06 58.74C21.59 59.01 22.09 59.37 22.57 59.81L23.91 58.27C23.63 58 23.33 57.75 23.01 57.52C22.69 57.29 22.35 57.1 21.98 56.94C21.61 56.78 21.2 56.65 20.75 56.56C20.3 56.47 19.81 56.42 19.27 56.42C18.37 56.42 17.54 56.58 16.8 56.9C16.05 57.22 15.41 57.66 14.87 58.22C14.33 58.78 13.91 59.43 13.61 60.18C13.31 60.93 13.16 61.72 13.16 62.57C13.16 63.42 13.31 64.23 13.62 64.98C13.92 65.73 14.35 66.37 14.88 66.92C15.42 67.47 16.05 67.9 16.79 68.22C17.52 68.54 18.33 68.69 19.2 68.69C19.75 68.69 20.26 68.64 20.72 68.55C21.18 68.45 21.6 68.31 21.98 68.13C22.36 67.94 22.72 67.72 23.06 67.47C23.39 67.22 23.71 66.93 24.02 66.6L23.99 66.58ZM8.2 63.77H4.12L6.15 59.03L8.2 63.77ZM7.15 56.54H5.22L0 68.48H2.13L3.35 65.62H8.96L10.16 68.48H12.36L7.14 56.54H7.15Z" fill="white"/>
<path fill-rule="evenodd" clip-rule="evenodd" d="M71.0996 11.45L73.3396 24.91L77.7096 22.9L71.0996 11.45Z" fill="white"/>
<path fill-rule="evenodd" clip-rule="evenodd" d="M73.3405 24.91L71.1005 11.45L64.4805 9.58002L73.3405 24.91Z" fill="white"/>
<path fill-rule="evenodd" clip-rule="evenodd" d="M64.4805 9.58L71.1005 11.45L64.4805 0V9.58Z" fill="white"/>
<path fill-rule="evenodd" clip-rule="evenodd" d="M52.7109 20.39L64.4809 9.58V0L52.7109 20.39Z" fill="white"/>
<path fill-rule="evenodd" clip-rule="evenodd" d="M64.4797 9.58002L52.7097 20.39L51.4297 32.19L64.4797 9.58002Z" fill="white"/>
<path fill-rule="evenodd" clip-rule="evenodd" d="M51.4302 32.19L52.7102 20.39L50.4402 24.33L43.1602 36.93L51.4302 32.19Z" fill="white"/>
<path fill-rule="evenodd" clip-rule="evenodd" d="M51.4302 32.19L43.1602 36.93L47.2902 39.36L49.2402 35.99L51.4302 32.19Z" fill="white"/>
<path fill-rule="evenodd" clip-rule="evenodd" d="M47.2906 39.36L43.1606 36.93L41.7106 39.45L39.7606 42.82L38.3806 45.21L36.3906 48.66L47.2906 39.36Z" fill="white"/>
<path fill-rule="evenodd" clip-rule="evenodd" d="M47.2906 39.36L36.3906 48.66H38.5806H41.1806L49.5306 43.87L50.3306 43.41L47.2906 39.36Z" fill="white"/>
<path fill-rule="evenodd" clip-rule="evenodd" d="M47.2891 39.36L50.3291 43.41L61.6191 32.78L47.2891 39.36Z" fill="white"/>
<path fill-rule="evenodd" clip-rule="evenodd" d="M61.6201 32.78L50.3301 43.41L75.6301 28.89L61.6201 32.78Z" fill="white"/>
<path fill-rule="evenodd" clip-rule="evenodd" d="M61.6191 32.78L75.6291 28.89L77.3191 25.56L74.4691 26.87L61.6191 32.78Z" fill="white"/>
<path fill-rule="evenodd" clip-rule="evenodd" d="M77.3209 25.56L75.6309 28.89L79.7909 26.5L97.9809 16.06L78.8409 24.86L77.3209 25.56Z" fill="white"/>
<path fill-rule="evenodd" clip-rule="evenodd" d="M80.9098 28.45L76.7598 30.84L84.2798 43.87L80.9098 28.45Z" fill="white"/>
<path fill-rule="evenodd" clip-rule="evenodd" d="M80.9102 28.45L84.2802 43.87L92.5802 48.66L80.9102 28.45Z" fill="white"/>
<path fill-rule="evenodd" clip-rule="evenodd" d="M84.2812 43.87L78.5312 48.66H92.5813L84.2812 43.87Z" fill="white"/>
<path fill-rule="evenodd" clip-rule="evenodd" d="M78.5305 48.66L84.2805 43.87H71.8105L78.5305 48.66Z" fill="white"/>
<path fill-rule="evenodd" clip-rule="evenodd" d="M78.5308 48.66L71.8108 43.87L62.3008 48.66H64.4808H78.5308Z" fill="white"/>
<path fill-rule="evenodd" clip-rule="evenodd" d="M62.3008 48.66L71.8108 43.87H54.0508L62.3008 48.66Z" fill="white"/>
<path fill-rule="evenodd" clip-rule="evenodd" d="M62.2992 48.66L54.0492 43.87L45.6992 48.66H62.2992Z" fill="white"/>
</g>
<defs>
<clipPath id="clip0_2211_16071">
<rect width="124" height="69" fill="white"/>
</clipPath>
</defs>
</svg>
